<svg xmlns="http://www.w3.org/2000/svg" viewBox="0 0 820 392" width="820" height="392" font-family="ui-sans-serif,system-ui,sans-serif" font-size="12"><title>T(M) totale e fit affine</title><rect width="820" height="392" fill="#fff"/><line x1="78" y1="336" x2="700" y2="336" stroke="#333"/><line x1="78" y1="34" x2="78" y2="336" stroke="#333"/><text x="389.0" y="378" text-anchor="middle" fill="#333">M (righe per dispatch) — scala LINEARE</text><text x="32" y="185.0" text-anchor="middle" fill="#333" transform="rotate(-90 32 185.0)">tempo TOTALE del dispatch (µs)</text><line x1="78.0" y1="34" x2="78.0" y2="336" stroke="#eee"/><text x="78.0" y="354" text-anchor="middle" fill="#555">1</text><line x1="119.5" y1="34" x2="119.5" y2="336" stroke="#eee"/><text x="119.5" y="354" text-anchor="middle" fill="#555">2</text><line x1="202.4" y1="34" x2="202.4" y2="336" stroke="#eee"/><text x="202.4" y="354" text-anchor="middle" fill="#555">4</text><line x1="368.3" y1="34" x2="368.3" y2="336" stroke="#eee"/><text x="368.3" y="354" text-anchor="middle" fill="#555">8</text><line x1="700.0" y1="34" x2="700.0" y2="336" stroke="#eee"/><text x="700.0" y="354" text-anchor="middle" fill="#555">16</text><line x1="78" y1="336.0" x2="700" y2="336.0" stroke="#eee"/><text x="70" y="340.0" text-anchor="end" fill="#555">0</text><line x1="78" y1="277.9" x2="700" y2="277.9" stroke="#eee"/><text x="70" y="281.9" text-anchor="end" fill="#555">5</text><line x1="78" y1="219.8" x2="700" y2="219.8" stroke="#eee"/><text x="70" y="223.8" text-anchor="end" fill="#555">10</text><line x1="78" y1="161.8" x2="700" y2="161.8" stroke="#eee"/><text x="70" y="165.8" text-anchor="end" fill="#555">15</text><line x1="78" y1="103.7" x2="700" y2="103.7" stroke="#eee"/><text x="70" y="107.7" text-anchor="end" fill="#555">20</text><line x1="78" y1="45.6" x2="700" y2="45.6" stroke="#eee"/><text x="70" y="49.6" text-anchor="end" fill="#555">25</text><line x1="78.0" y1="256.6" x2="700.0" y2="141.2" stroke="#c0392b" stroke-width="1" stroke-dasharray="5 4" opacity=".55"/><polyline fill="none" stroke="#c0392b" stroke-width="2.2" points="78.0,256.5 119.5,248.3 202.4,233.4 368.3,204.4 700.0,140.5"/><circle cx="78.0" cy="256.5" r="3.4" fill="#c0392b"/><circle cx="119.5" cy="248.3" r="3.4" fill="#c0392b"/><circle cx="202.4" cy="233.4" r="3.4" fill="#c0392b"/><circle cx="368.3" cy="204.4" r="3.4" fill="#c0392b"/><circle cx="700.0" cy="140.5" r="3.4" fill="#c0392b"/><text x="708" y="145.2" fill="#c0392b" font-size="11">q4_K 2048x512</text><text x="92" y="50" fill="#c0392b" font-size="11">T(M) = 6.17 + 0.663·M  µs</text><line x1="78.0" y1="291.5" x2="700.0" y2="225.2" stroke="#2980b9" stroke-width="1" stroke-dasharray="5 4" opacity=".55"/><polyline fill="none" stroke="#2980b9" stroke-width="2.2" points="78.0,292.9 119.5,286.2 202.4,277.3 368.3,260.9 700.0,225.2"/><circle cx="78.0" cy="292.9" r="3.4" fill="#2980b9"/><circle cx="119.5" cy="286.2" r="3.4" fill="#2980b9"/><circle cx="202.4" cy="277.3" r="3.4" fill="#2980b9"/><circle cx="368.3" cy="260.9" r="3.4" fill="#2980b9"/><circle cx="700.0" cy="225.2" r="3.4" fill="#2980b9"/><text x="708" y="229.2" fill="#2980b9" font-size="11">q4_K 512x2048</text><text x="92" y="67" fill="#2980b9" font-size="11">T(M) = 3.45 + 0.381·M  µs</text><line x1="78.0" y1="287.4" x2="700.0" y2="229.0" stroke="#27ae60" stroke-width="1" stroke-dasharray="5 4" opacity=".55"/><polyline fill="none" stroke="#27ae60" stroke-width="2.2" points="78.0,287.7 119.5,283.2 202.4,275.8 368.3,260.2 700.0,229.0"/><circle cx="78.0" cy="287.7" r="3.4" fill="#27ae60"/><circle cx="119.5" cy="283.2" r="3.4" fill="#27ae60"/><circle cx="202.4" cy="275.8" r="3.4" fill="#27ae60"/><circle cx="368.3" cy="260.2" r="3.4" fill="#27ae60"/><circle cx="700.0" cy="229.0" r="3.4" fill="#27ae60"/><text x="708" y="233.0" fill="#27ae60" font-size="11">q6_K 512x2048</text><text x="92" y="84" fill="#27ae60" font-size="11">T(M) = 3.85 + 0.336·M  µs</text><text x="78" y="22" fill="#111" font-weight="600" font-size="13">Il tempo totale è AFFINE in M — la retta tratteggiata è il fit</text></svg>