<svg xmlns="http://www.w3.org/2000/svg" viewBox="0 0 700 392" width="700" height="392" font-family="ui-sans-serif,system-ui,sans-serif" font-size="12"><title>banda effettiva vs tetto VRAM</title><rect width="700" height="392" fill="#fff"/><line x1="78" y1="336" x2="620" y2="336" stroke="#333"/><line x1="78" y1="34" x2="78" y2="336" stroke="#333"/><text x="349.0" y="378" text-anchor="middle" fill="#333">celle del banco, ordinate per banda</text><text x="32" y="185.0" text-anchor="middle" fill="#333" transform="rotate(-90 32 185.0)">banda effettiva sui pesi (GB/s)</text><line x1="78" y1="336.0" x2="620" y2="336.0" stroke="#eee"/><text x="70" y="340.0" text-anchor="end" fill="#555">0</text><line x1="78" y1="264.9" x2="620" y2="264.9" stroke="#eee"/><text x="70" y="268.9" text-anchor="end" fill="#555">200</text><line x1="78" y1="193.9" x2="620" y2="193.9" stroke="#eee"/><text x="70" y="197.9" text-anchor="end" fill="#555">400</text><line x1="78" y1="122.8" x2="620" y2="122.8" stroke="#eee"/><text x="70" y="126.8" text-anchor="end" fill="#555">600</text><line x1="78" y1="51.8" x2="620" y2="51.8" stroke="#eee"/><text x="70" y="55.8" text-anchor="end" fill="#555">800</text><rect x="79.0" y="56.9" width="18.8" height="279.1" fill="#c0392b"/><rect x="99.8" y="65.1" width="18.8" height="270.9" fill="#c0392b"/><rect x="120.7" y="88.8" width="18.8" height="247.2" fill="#c0392b"/><rect x="141.5" y="132.5" width="18.8" height="203.5" fill="#c0392b"/><rect x="162.4" y="146.1" width="18.8" height="189.9" fill="#c0392b"/><rect x="183.2" y="149.6" width="18.8" height="186.4" fill="#c0392b"/><rect x="204.1" y="153.8" width="18.8" height="182.2" fill="#c0392b"/><rect x="224.9" y="170.8" width="18.8" height="165.2" fill="#c0392b"/><rect x="245.8" y="174.1" width="18.8" height="161.9" fill="#c0392b"/><rect x="266.6" y="177.7" width="18.8" height="158.3" fill="#c0392b"/><rect x="287.5" y="178.9" width="18.8" height="157.1" fill="#c0392b"/><rect x="308.3" y="185.6" width="18.8" height="150.4" fill="#95a5a6"/><rect x="329.2" y="185.6" width="18.8" height="150.4" fill="#95a5a6"/><rect x="350.0" y="187.0" width="18.8" height="149.0" fill="#95a5a6"/><rect x="370.8" y="194.3" width="18.8" height="141.7" fill="#95a5a6"/><rect x="391.7" y="199.3" width="18.8" height="136.7" fill="#95a5a6"/><rect x="412.5" y="199.5" width="18.8" height="136.5" fill="#95a5a6"/><rect x="433.4" y="200.6" width="18.8" height="135.4" fill="#95a5a6"/><rect x="454.2" y="201.2" width="18.8" height="134.8" fill="#95a5a6"/><rect x="475.1" y="203.3" width="18.8" height="132.7" fill="#95a5a6"/><rect x="495.9" y="206.5" width="18.8" height="129.5" fill="#95a5a6"/><rect x="516.8" y="221.7" width="18.8" height="114.3" fill="#95a5a6"/><rect x="537.6" y="222.8" width="18.8" height="113.2" fill="#95a5a6"/><rect x="558.5" y="228.7" width="18.8" height="107.3" fill="#95a5a6"/><rect x="579.3" y="231.6" width="18.8" height="104.4" fill="#95a5a6"/><rect x="600.2" y="232.8" width="18.8" height="103.2" fill="#95a5a6"/><line x1="78" y1="181.4" x2="620" y2="181.4" stroke="#111" stroke-width="2"/><text x="616" y="173.4" text-anchor="end" fill="#111" font-size="11">tetto VRAM MISURATO della scheda: 435 GB/s</text><text x="88" y="52" fill="#c0392b" font-size="11">11 celle SOPRA il tetto fisico — fino a 785 GB/s</text><text x="88" y="69" fill="#555" font-size="11">impossibile dalla VRAM: i pesi stanno nella L2 (64 MB), le matrici sono 0,6-17,8 MB</text><text x="78" y="22" fill="#111" font-weight="600" font-size="13">Il banco NON misura il regime del decode</text></svg>