<svg xmlns="http://www.w3.org/2000/svg" viewBox="0 0 700 392" width="700" height="392" font-family="ui-sans-serif,system-ui,sans-serif" font-size="12"><title>overlap per layer</title><rect width="700" height="392" fill="#fff"/><line x1="78" y1="330" x2="640" y2="330" stroke="#333"/><line x1="78" y1="44" x2="78" y2="330" stroke="#333"/><text x="359.0" y="372" text-anchor="middle" fill="#333">layer (0 → 39)</text><text x="30" y="187.0" text-anchor="middle" fill="#333" transform="rotate(-90 30 187.0)">expert condivisi fra posizioni adiacenti  ov(1)</text><line x1="78" y1="330.0" x2="640" y2="330.0" stroke="#eee"/><text x="70" y="334.0" text-anchor="end" fill="#555">0</text><line x1="78" y1="261.9" x2="640" y2="261.9" stroke="#eee"/><text x="70" y="265.9" text-anchor="end" fill="#555">1</text><line x1="78" y1="193.8" x2="640" y2="193.8" stroke="#eee"/><text x="70" y="197.8" text-anchor="end" fill="#555">2</text><line x1="78" y1="125.7" x2="640" y2="125.7" stroke="#eee"/><text x="70" y="129.7" text-anchor="end" fill="#555">3</text><line x1="78" y1="57.6" x2="640" y2="57.6" stroke="#eee"/><text x="70" y="61.6" text-anchor="end" fill="#555">4</text><line x1="78" y1="313.0" x2="640" y2="313.0" stroke="#c0392b" stroke-width="2" stroke-dasharray="6 4"/><text x="636" y="306.0" text-anchor="end" fill="#c0392b" font-size="11">routing INDIPENDENTE: 0,25</text><polyline fill="none" stroke="#2980b9" stroke-width="2" points="78.0,294.7 92.4,251.7 106.8,227.9 121.2,203.5 135.6,168.7 150.1,135.4 164.5,113.8 178.9,107.4 193.3,101.6 207.7,83.3 222.1,129.0 236.5,156.2 250.9,122.2 265.3,88.4 279.7,74.4 294.2,86.8 308.6,114.8 323.0,127.7 337.4,99.8 351.8,86.6 366.2,76.7 380.6,78.7 395.0,136.9 409.4,165.4 423.8,119.6 438.3,93.7 452.7,102.1 467.1,90.4 481.5,108.9 495.9,144.5 510.3,139.7 524.7,148.6 539.1,192.0 553.5,196.6 567.9,192.3 582.4,121.1 596.8,154.4 611.2,111.5 625.6,124.2 640.0,216.7"/><text x="92" y="60" fill="#2980b9" font-size="11">p7 · prosa-en</text><polyline fill="none" stroke="#e67e22" stroke-width="2" points="78.0,304.5 92.4,223.9 106.8,178.9 121.2,174.5 135.6,172.7 150.1,109.7 164.5,99.8 178.9,61.1 193.3,71.0 207.7,86.5 222.1,85.2 236.5,141.9 250.9,89.6 265.3,95.8 279.7,88.2 294.2,85.9 308.6,70.8 323.0,97.6 337.4,106.2 351.8,105.7 366.2,79.8 380.6,106.4 395.0,115.5 409.4,171.1 423.8,130.1 438.3,104.4 452.7,116.6 467.1,115.0 481.5,90.5 495.9,134.0 510.3,128.0 524.7,124.3 539.1,183.4 553.5,183.3 567.9,173.8 582.4,152.3 596.8,163.2 611.2,127.1 625.6,111.8 640.0,209.8"/><text x="92" y="77" fill="#e67e22" font-size="11">p4 · math-en</text><text x="78.0" y="348" text-anchor="middle" fill="#555">0</text><text x="222.1" y="348" text-anchor="middle" fill="#555">10</text><text x="366.2" y="348" text-anchor="middle" fill="#555">20</text><text x="510.3" y="348" text-anchor="middle" fill="#555">30</text><text x="640.0" y="348" text-anchor="middle" fill="#555">39</text><text x="78" y="22" fill="#111" font-weight="600" font-size="13">I primi layer instradano sul TOKEN, i profondi sul CONTESTO</text><text x="78" y="38" fill="#555" font-size="11">layer 0 quasi indipendente (0,37-0,52) · layer profondi 12-15x la baseline</text></svg>